HIERARCHY
ROOT Hips
{
	OFFSET 0.000000 0.000000 0.000000
	CHANNELS 6 Xposition Yposition Zposition Zrotation Xrotation Yrotation
	JOINT Spine
	{
		OFFSET 0.000000 -0.000000 0.081436
		CHANNELS 6 Xposition Yposition Zposition Zrotation Xrotation Yrotation
		JOINT Spine1
		{
			OFFSET 0.000000 -0.000000 0.206037
			CHANNELS 6 Xposition Yposition Zposition Zrotation Xrotation Yrotation
			JOINT Neck
			{
				OFFSET 0.000000 -0.000000 0.206037
				CHANNELS 6 Xposition Yposition Zposition Zrotation Xrotation Yrotation
				JOINT Head
				{
					OFFSET 0.000000 -0.000000 0.109243
					CHANNELS 6 Xposition Yposition Zposition Zrotation Xrotation Yrotation
					End Site
					{
						OFFSET 0.000000 -0.000000 0.248279
					}
				}
			}
			JOINT LeftShoulder
			{
				OFFSET 0.039631 0.002820 0.186820
				CHANNELS 6 Xposition Yposition Zposition Zrotation Xrotation Yrotation
				JOINT LeftArm
				{
					OFFSET 0.111855 0.000000 0.000000
					CHANNELS 6 Xposition Yposition Zposition Zrotation Xrotation Yrotation
					JOINT LeftForeArm
					{
						OFFSET 0.340751 0.000000 0.000000
						CHANNELS 6 Xposition Yposition Zposition Zrotation Xrotation Yrotation
						JOINT LeftHand
						{
							OFFSET 0.213779 0.000000 0.000000
							CHANNELS 6 Xposition Yposition Zposition Zrotation Xrotation Yrotation
							End Site
							{
								OFFSET 0.148968 0.000000 0.000000
							}
						}
					}
				}
			}
			JOINT RightShoulder
			{
				OFFSET -0.039679 0.002820 0.186820
				CHANNELS 6 Xposition Yposition Zposition Zrotation Xrotation Yrotation
				JOINT RightArm
				{
					OFFSET -0.111855 0.000000 0.000000
					CHANNELS 6 Xposition Yposition Zposition Zrotation Xrotation Yrotation
					JOINT RightForeArm
					{
						OFFSET -0.340751 0.000000 0.000000
						CHANNELS 6 Xposition Yposition Zposition Zrotation Xrotation Yrotation
						JOINT RightHand
						{
							OFFSET -0.213779 0.000000 0.000000
							CHANNELS 6 Xposition Yposition Zposition Zrotation Xrotation Yrotation
							End Site
							{
								OFFSET -0.148968 0.000000 0.000000
							}
						}
					}
				}
			}
		}
	}
	JOINT LeftUpLeg
	{
		OFFSET 0.099312 0.000000 0.000000
		CHANNELS 6 Xposition Yposition Zposition Zrotation Xrotation Yrotation
		JOINT LeftLeg
		{
			OFFSET 0.000000 0.000000 -0.476468
			CHANNELS 6 Xposition Yposition Zposition Zrotation Xrotation Yrotation
			JOINT LeftFoot
			{
				OFFSET 0.000000 0.000000 -0.378939
				CHANNELS 6 Xposition Yposition Zposition Zrotation Xrotation Yrotation
				JOINT LeftToeBase
				{
					OFFSET 0.000000 -0.148968 -0.064553
					CHANNELS 6 Xposition Yposition Zposition Zrotation Xrotation Yrotation
					End Site
					{
						OFFSET 0.000000 -0.039725 -0.000000
					}
				}
			}
		}
	}
	JOINT RightUpLeg
	{
		OFFSET -0.099312 0.000000 0.000000
		CHANNELS 6 Xposition Yposition Zposition Zrotation Xrotation Yrotation
		JOINT RightLeg
		{
			OFFSET 0.000000 0.000000 -0.476468
			CHANNELS 6 Xposition Yposition Zposition Zrotation Xrotation Yrotation
			JOINT RightFoot
			{
				OFFSET 0.000000 0.000000 -0.378939
				CHANNELS 6 Xposition Yposition Zposition Zrotation Xrotation Yrotation
				JOINT RightToeBase
				{
					OFFSET 0.000000 -0.148968 -0.064553
					CHANNELS 6 Xposition Yposition Zposition Zrotation Xrotation Yrotation
					End Site
					{
						OFFSET 0.000000 -0.039725 -0.000000
					}
				}
			}
		}
	}
}
MOTION
Frames: 6
Frame Time: 0.041667
0.424311 -0.242309 0.999570 44.510687 2.285605 -0.303800 0.000000 -0.000000 0.081436 -0.063855 -11.039401 -0.660722 0.000000 -0.000000 0.206037 -3.529697 7.256004 1.394557 -0.000000 0.000000 0.206037 1.331647 23.078250 -6.516078 -0.000000 -0.000000 0.109243 24.466030 -5.018857 12.946599 0.039631 0.002820 0.186820 3.216261 11.451324 -0.345332 0.111855 0.000000 0.000000 -48.551030 2.869480 67.189493 0.340751 -0.000000 0.000000 -27.289958 2.859344 -11.741697 0.213779 0.000000 0.000000 -0.581551 -3.384140 -0.728921 -0.039679 0.002820 0.186820 1.747283 10.092603 3.316340 -0.111855 0.000000 0.000000 45.479706 9.089454 -77.158338 -0.340751 0.000000 0.000000 25.703863 1.032801 4.526573 -0.213779 -0.000000 0.000000 -1.920270 -7.443615 10.133048 0.099312 -0.000000 0.000000 11.700818 3.004852 -7.897741 0.000000 0.000000 -0.476468 -0.873739 3.285928 1.632728 -0.000000 0.000000 -0.378939 14.733685 -7.021568 5.785394 -0.000000 -0.148968 -0.064553 -0.000000 0.000003 0.000001 -0.099312 -0.000000 0.000000 -3.497302 -2.579523 1.964336 0.000000 0.000000 -0.476468 3.694927 20.434292 1.811726 -0.000000 0.000000 -0.378939 -19.181640 -16.193067 -10.310240 -0.000000 -0.148968 -0.064553 -0.000003 -0.000002 0.000001 
0.424224 -0.242972 0.999677 44.226329 2.215285 -0.274651 0.000000 -0.000000 0.081436 -0.047646 -11.044623 -0.492750 0.000000 -0.000000 0.206037 -3.303801 7.055514 1.005363 0.000000 -0.000000 0.206037 1.333497 23.697066 -6.350332 -0.000000 0.000000 0.109243 24.524236 -5.514199 13.663224 0.039631 0.002820 0.186820 2.850625 11.508824 -0.024062 0.111855 -0.000000 -0.000000 -48.881191 2.777419 66.744301 0.340751 -0.000000 0.000000 -28.943900 3.330678 -12.856019 0.213779 -0.000000 0.000000 -0.558267 -3.969889 -0.838331 -0.039679 0.002820 0.186820 2.011112 10.253651 3.399295 -0.111855 -0.000000 0.000000 45.909731 8.860393 -76.759052 -0.340751 -0.000000 0.000000 26.914535 1.128986 4.717388 -0.213779 0.000000 -0.000000 -2.236812 -7.946905 11.563600 0.099312 -0.000000 -0.000000 11.846006 3.170971 -7.968723 -0.000000 0.000000 -0.476468 -0.833926 3.210142 1.631340 0.000000 0.000000 -0.378939 14.854649 -6.953617 5.863607 -0.000000 -0.148968 -0.064553 0.000001 -0.000001 -0.000000 -0.099312 -0.000000 -0.000000 -3.027681 -2.151097 1.981654 -0.000000 0.000000 -0.476468 3.903921 19.812565 1.649433 -0.000000 0.000000 -0.378939 -19.383445 -16.260959 -10.197116 0.000000 -0.148968 -0.064553 0.000001 0.000002 0.000000 
0.423267 -0.243213 0.999595 44.199568 2.290510 -0.098659 -0.000000 0.000000 0.081436 -0.040533 -10.980271 -0.421585 -0.000000 -0.000000 0.206037 -3.334687 6.700806 0.753570 0.000000 -0.000000 0.206037 1.332599 23.772231 -6.325466 0.000000 0.000000 0.109243 24.495386 -5.549917 13.957881 0.039631 0.002820 0.186820 2.696069 11.378900 -0.106281 0.111855 0.000000 0.000000 -49.194574 2.483827 66.530134 0.340751 -0.000000 0.000000 -30.495558 3.740226 -13.662534 0.213779 -0.000000 0.000000 -0.350048 -4.202001 -1.111497 -0.039679 0.002820 0.186820 2.370387 10.303539 3.327933 -0.111855 -0.000000 0.000000 46.096482 8.725273 -76.291881 -0.340751 -0.000000 -0.000000 28.425767 1.267562 5.003478 -0.213779 0.000000 0.000000 -2.391634 -8.105303 12.444940 0.099312 0.000000 -0.000000 11.745546 3.020982 -8.180181 0.000000 0.000000 -0.476468 -0.806797 3.262823 1.647348 0.000000 0.000000 -0.378939 14.941052 -7.017164 5.937506 -0.000000 -0.148968 -0.064553 -0.000000 0.000000 -0.000001 -0.099312 0.000000 -0.000000 -2.723570 -1.965519 1.804017 -0.000000 0.000000 -0.476468 3.990240 19.354325 1.477278 -0.000000 0.000000 -0.378939 -19.650125 -16.339214 -10.076642 0.000000 -0.148968 -0.064553 -0.000001 0.000001 0.000000 
0.422801 -0.243524 0.999674 44.049611 2.320291 0.005598 -0.000000 0.000000 0.081436 -0.030935 -10.967344 -0.322141 0.000000 -0.000000 0.206037 -3.207003 6.439352 0.500282 0.000000 -0.000000 0.206037 1.256951 23.597306 -6.012387 0.000000 0.000000 0.109243 24.423623 -5.431355 13.674502 0.039631 0.002820 0.186820 2.442806 11.150221 -0.087885 0.111855 0.000000 -0.000000 -49.380731 2.382636 66.410489 0.340751 -0.000000 0.000000 -32.014528 4.161144 -14.435962 0.213779 -0.000000 -0.000000 -0.267196 -4.547355 -1.297815 -0.039679 0.002820 0.186820 2.638944 10.294896 3.271317 -0.111855 0.000000 -0.000000 46.317398 8.615978 -75.731375 -0.340751 -0.000000 -0.000000 30.134265 1.444664 5.364527 -0.213779 -0.000000 0.000000 -2.784753 -8.022393 12.966423 0.099312 0.000000 0.000000 11.699781 3.060215 -8.286852 0.000000 0.000000 -0.476468 -0.716497 3.155093 1.625915 0.000000 0.000000 -0.378939 15.065070 -6.990242 5.974261 0.000000 -0.148968 -0.064553 0.000003 -0.000001 0.000001 -0.099312 0.000000 0.000000 -2.382969 -1.804408 1.727002 0.000000 0.000000 -0.476468 2.776802 18.850076 1.731695 -0.000000 0.000000 -0.378939 -18.610457 -16.174757 -9.913442 -0.000000 -0.148968 -0.064553 -0.000002 -0.000001 0.000000 
0.422033 -0.243423 0.999829 43.930821 2.405921 0.072328 -0.000000 -0.000000 0.081436 -0.025918 -10.900228 -0.271527 0.000000 0.000000 0.206037 -3.145846 6.156845 0.555222 -0.000000 -0.000000 0.206037 1.004351 23.097299 -4.912525 0.000000 0.000000 0.109243 24.878250 -5.637992 11.983347 0.039631 0.002820 0.186820 2.574637 10.915108 -0.549777 0.111855 0.000000 -0.000000 -49.803656 2.049315 66.405121 0.340751 -0.000000 -0.000000 -33.420208 4.590924 -15.212399 0.213779 0.000000 0.000000 0.092191 -4.807887 -0.219392 -0.039679 0.002820 0.186820 2.857183 10.134975 3.118629 -0.111855 0.000000 0.000000 46.642737 8.527706 -75.171143 -0.340751 0.000000 0.000000 31.946663 1.751246 6.114541 -0.213779 0.000000 0.000000 -2.741278 -7.914500 12.469866 0.099312 -0.000000 0.000000 11.624728 3.034725 -8.332162 0.000000 0.000000 -0.476468 -0.557738 3.021459 1.609848 0.000000 0.000000 -0.378939 15.124066 -6.923581 5.975746 0.000000 -0.148968 -0.064553 0.000000 -0.000001 -0.000001 -0.099312 -0.000000 0.000000 -2.609615 -1.946422 1.646755 -0.000000 0.000000 -0.476468 3.473002 18.902325 1.583813 -0.000000 0.000000 -0.378939 -18.874487 -16.180010 -9.903299 -0.000000 -0.148968 -0.064553 -0.000001 0.000002 0.000000 
0.421413 -0.243545 0.999861 43.715181 2.448536 0.126426 0.000000 0.000000 0.081436 -0.011917 -10.895292 -0.124849 0.000000 0.000000 0.206037 -3.021176 5.799885 0.213315 0.000000 -0.000000 0.206037 1.050509 23.675664 -5.009098 -0.000000 -0.000000 0.109243 24.462423 -6.215485 12.707807 0.039631 0.002820 0.186820 2.207982 10.895659 -0.329898 0.111855 -0.000000 0.000000 -49.932593 2.175261 66.260731 0.340751 -0.000000 0.000000 -34.642590 5.047083 -16.088840 0.213779 -0.000000 -0.000000 0.181799 -5.201715 -0.082285 -0.039679 0.002820 0.186820 3.038487 10.213336 3.208984 -0.111855 0.000000 0.000000 46.623496 8.131349 -74.282521 -0.340751 -0.000000 -0.000000 33.820672 1.946514 6.398330 -0.213779 -0.000000 0.000000 -2.784966 -7.699177 12.807037 0.099312 0.000000 0.000000 11.677965 3.123002 -8.389843 -0.000000 0.000000 -0.476468 -0.363293 2.806523 1.614752 0.000000 0.000000 -0.378939 15.129964 -6.868755 5.949370 -0.000000 -0.148968 -0.064553 -0.000001 -0.000000 -0.000001 -0.099312 0.000000 0.000000 -2.141532 -2.050669 1.602938 -0.000000 0.000000 -0.476468 2.766501 18.877699 1.689698 -0.000000 0.000000 -0.378939 -18.387832 -16.058019 -9.860465 -0.000000 -0.148968 -0.064553 -0.000002 -0.000004 0.000002 
